<svg width="216" height="34" xmlns="http://www.w3.org/2000/svg" viewBox="0 0 216.06 34.86">
  <defs>
    <style>
      .cls-1 {
        fill: #fff;
      }
    </style>
  </defs>
  <title>oxy-low-carbon-logo</title>
  <g id="Layer_2" data-name="Layer 2">
    <g id="Nav">
      <g>
        <g>
          <path class="cls-1" d="M158.32,20.42h-1.67l-3.81-5h1.65Z"/>
          <path class="cls-1" d="M189.64,20.74a7.56,7.56,0,1,1,7.76-7.55A7.59,7.59,0,0,1,189.64,20.74Zm0-13.81a6.31,6.31,0,0,0-6.54,6.19,6.51,6.51,0,1,0,6.54-6.19Z"/>
          <path class="cls-1" d="M46.28,20.43V5.94H47.6V19.09h9.48v1.34Z"/>
          <path class="cls-1" d="M116.09,20.76a7.57,7.57,0,0,1-7.83-7.57c0-4.51,3.49-7.59,7.9-7.59a9,9,0,0,1,7,2.83l-.89,1a7.78,7.78,0,0,0-5.94-2.45c-3.72,0-6.69,2.41-6.69,6.26a6.29,6.29,0,0,0,6.57,6.23,8.76,8.76,0,0,0,6.09-2.61l.92,1A10,10,0,0,1,116.09,20.76Z"/>
          <path class="cls-1" d="M127.58,20.43h-1.47l7-14.51h1.34l7.11,14.51h-1.48l-2.54-5.17h-5.34l.63-1.33h4l-3.1-6.34Z"/>
          <path class="cls-1" d="M175.61,19.56a4.64,4.64,0,0,1-3.21.87h-8.55V5.94h8.55a3.88,3.88,0,0,1,4.08,3.89A4,4,0,0,1,175,12.88a3.93,3.93,0,0,1,2.12,3.52A4,4,0,0,1,175.61,19.56ZM172.4,7.28h-7.22v5.06h7.22a2.52,2.52,0,0,0,2.76-2.53A2.49,2.49,0,0,0,172.4,7.28Zm0,6.4h-7.22v5.41h7.22a3.41,3.41,0,0,0,2.53-.68,2.65,2.65,0,0,0,.87-2C175.8,14.4,174.17,13.68,172.4,13.68Z"/>
          <g>
            <polygon class="cls-1" points="203.18 7.64 203.18 20.43 204.5 20.43 204.5 9.32 203.18 7.64"/>
            <polygon class="cls-1" points="214.74 5.94 214.74 18.31 204.5 5.94 203.18 5.94 203.18 5.96 212.36 17.57 214.72 20.43 216.06 20.43 216.06 5.94 214.74 5.94"/>
          </g>
          <g>
            <path class="cls-1" d="M63.25,8.22a6.84,6.84,0,0,1,4-1.29,6.29,6.29,0,0,1,6.47,6.3,6,6,0,0,1-2.54,5l.83,1a7.36,7.36,0,0,0,3-6,7.59,7.59,0,0,0-7.86-7.57,8,8,0,0,0-4.79,1.57Z"/>
            <path class="cls-1" d="M70.3,18.74a7,7,0,0,1-3,.68,6.24,6.24,0,0,1-6.5-6.3A5.91,5.91,0,0,1,62.46,8.9l-.82-1a7.32,7.32,0,0,0-2.2,5.28,7.59,7.59,0,0,0,7.86,7.59,8.13,8.13,0,0,0,3.85-.95Z"/>
          </g>
          <g>
            <path class="cls-1" d="M50.94,34.13h-.62l-2.56-4.75h.71l2.17,4,2.18-4h.72Z"/>
            <path class="cls-1" d="M63.1,34.13V29.38h4.18V30H63.71v1.38h2.05V32H63.71V33.5h3.67v.63Z"/>
            <path class="cls-1" d="M81.93,34.13l-3.34-3.81v3.81H78V29.38h.62l3.34,3.81V29.38h.62v4.75Z"/>
            <path class="cls-1" d="M95.22,30v4.13h-.61V30H92.69v-.62h4.47V30Z"/>
            <path class="cls-1" d="M109.63,34.26c-1.33,0-2.32-.53-2.32-2v-2.9h.63v2.9c0,1.09.75,1.36,1.7,1.36s1.67-.3,1.67-1.36v-2.9h.62v2.9C111.93,33.71,110.94,34.26,109.63,34.26Z"/>
            <path class="cls-1" d="M126.84,34.13l-1.35-1.92h-2.12v1.92h-.62V29.38h3c.91,0,1.81.36,1.81,1.41a1.41,1.41,0,0,1-1.29,1.37l1.39,2ZM125.71,30h-2.34v1.58h2.34c.55,0,1.19-.13,1.19-.8S126.25,30,125.71,30Z"/>
            <path class="cls-1" d="M137.77,34.13V29.38H142V30h-3.56v1.38h2V32h-2V33.5h3.66v.63Z"/>
            <path class="cls-1" d="M154.73,34.31a5.94,5.94,0,0,1-1.57-.21,3.65,3.65,0,0,1-1.33-.64l.3-.57c.11.08.22.17.33.24a4.28,4.28,0,0,0,2.21.56c.55,0,1.68-.12,1.68-.88,0-.6-.59-.79-1.1-.81l-1.43,0c-.78,0-1.63-.42-1.63-1.32,0-1.09,1.18-1.42,2.08-1.42a4.46,4.46,0,0,1,2.44.66l-.29.56a3.29,3.29,0,0,0-2.13-.59c-.48,0-1.48.1-1.48.78,0,.52.55.7,1,.7l1.32,0c.88,0,1.87.42,1.87,1.44C157,34,155.69,34.31,154.73,34.31Z"/>
          </g>
          <path class="cls-1" d="M156.71,6.5A4.49,4.49,0,0,0,154,5.92h-8.54V8.75l1.36,1.73V7.26h6.6c1.67,0,2.2.14,2.7.45A2.59,2.59,0,0,1,157.3,10a3,3,0,0,1-1.11,2.41c-.59.43-1.27.53-2.8.53h-6.54l-1.42-1.77v9.22h1.36V14.3h7.84a5.3,5.3,0,0,0,2.38-.79,4.4,4.4,0,0,0,1.61-3.41A4.35,4.35,0,0,0,156.71,6.5Z"/>
          <polygon class="cls-1" points="96.97 5.63 95.62 5.63 92.33 17.09 88.39 5.63 88.2 5.63 86.98 5.63 86.85 5.63 83.56 17.09 79.61 5.63 78.21 5.63 83.66 21.04 87.64 7.5 92.43 21.04 96.97 5.63"/>
          <path class="cls-1" d="M76,22.71H74.62L59.09,3.23h1.32Z"/>
        </g>
        <g>
          <path class="cls-1" d="M23.18,11A12.84,12.84,0,0,0,12.06,4.4,12.52,12.52,0,0,0,2.18,9.05C1.76,9.63,1.27,10.38.93,11H.69A17.47,17.47,0,0,1,16.46,0h.33a19.73,19.73,0,0,1,8.38,2.16A17.15,17.15,0,0,1,32.89,11h-9.8"/>
          <path class="cls-1" d="M10.4,23.82a12.82,12.82,0,0,0,11.12,6.64,12.5,12.5,0,0,0,9.87-4.65c.42-.58.92-1.33,1.25-1.91h.25a17.48,17.48,0,0,1-15.77,11h-.33A19.74,19.74,0,0,1,8.4,32.7,17.15,17.15,0,0,1,.69,23.9h9.79"/>
          <g>
            <path class="cls-1" d="M7.35,13.53c1.63.05,2.39.24,2.78.74s.47.91.47,2.65c0,.16,0,.32,0,.48,0,1.09,0,1.83-.08,2.22A1.71,1.71,0,0,1,10,20.73c-.58.51-1.61.66-4.34.66a22.83,22.83,0,0,1-4-.25A1.73,1.73,0,0,1,.05,19.33c0-.4,0-.84,0-1.31,0-.18,0-.38,0-.57,0-1,0-1.69.09-2.06A2,2,0,0,1,.67,14.1c.47-.43,1.16-.58,2.81-.62H5.3Zm-.73,5.82c1.2,0,1.55-.22,1.58-1,0-.37,0-.9,0-1.28,0-1.23-.11-1.43-.81-1.51a18.89,18.89,0,0,0-2.23-.12c-1.63,0-2.27.07-2.5.27s-.35.68-.35,1.71c0,1.54.13,1.8,1,1.88.44,0,.86.06,1.52.06a2.36,2.36,0,0,0,.37,0Z"/>
            <path class="cls-1" d="M14.32,13.59l2.38,2.7,2.4-2.7h3.24L18.63,17.4l3.9,3.88h-3.3L16.7,18.52l-2.5,2.76H10.82l3.94-3.88-3.64-3.81Z"/>
            <path class="cls-1" d="M25.84,13.59l2.51,3.08,2.4-3.08h3.06l-4.21,5v2.71H27.17V18.57l-4.41-5Z"/>
          </g>
        </g>
      </g>
    </g>
  </g>
</svg>
