<svg xmlns="http://www.w3.org/2000/svg" xmlns:xlink="http://www.w3.org/1999/xlink" viewBox="0 0 169.4 30" width="169" height="30">
  <defs>
    <style>
      .b6c63af6-0a8e-4be1-a9d5-f5d9e462d85b {
        fill: none;
      }

      .a9725fb0-3b8f-4192-8f50-9b9aa4ade963 {
        clip-path: url(#f17ab87f-3073-46e8-95d6-8471ef99ad16);
      }

      .ad892bb1-be3a-426e-8bae-5ac0e52aec17 {
        fill: #977512;
      }

      .b67cc4a2-ca21-4aca-9a45-019df9b0b048 {
        fill: #050a10;
      }
    </style>
    <clipPath id="f17ab87f-3073-46e8-95d6-8471ef99ad16" transform="translate(0 0)">
      <rect class="b6c63af6-0a8e-4be1-a9d5-f5d9e462d85b" width="169.4" height="29.96"/>
    </clipPath>
  </defs>
  <title>pv-logo</title>
  <g id="af1b8163-c4d3-45dc-a1bd-9b69f0534c3b" data-name="Layer 2">
    <g id="f15b4b66-2877-4a39-bf3d-968ed1488a69" data-name="Nav/Footer">
      <g class="a9725fb0-3b8f-4192-8f50-9b9aa4ade963">
        <path class="ad892bb1-be3a-426e-8bae-5ac0e52aec17" d="M85.4,15h2A3.5,3.5,0,0,0,90,14a3.7,3.7,0,0,0,1-2.7V9.2A3.3,3.3,0,0,0,87.6,6H80v9.8l3.6,4.1V9.4h3.8v2.3h-2ZM97,2.1A33.9,33.9,0,0,0,85.3,0,30.5,30.5,0,0,0,74,2.1V15.8h3.6V4.7a23.8,23.8,0,0,1,15.8.1v11H97V2.1ZM85.5,24.6l-6-6.9H74l1.9,3.1h1.5L85.3,30h.5l7.8-9.2h1.6L97,17.7H91.6Z" transform="translate(0 0)"/>
        <path class="b67cc4a2-ca21-4aca-9a45-019df9b0b048" d="M42.9,13.7V9.5h3.9a1.3,1.3,0,0,1,1.4,1.3v1.6a1.3,1.3,0,0,1-1.4,1.3Zm6.2-1.2V10.8a2,2,0,0,0-2.2-2.1H42v9.5h.9V14.5h3.5l1.7,3.6h1.1l-1.9-3.7a2,2,0,0,0,1.8-2m13.7,3.7c0,.7-.5,1.2-1.4,1.2H58.6a1.3,1.3,0,0,1-1.4-1.2V10.8a1.3,1.3,0,0,1,1.4-1.3h2.8a1.2,1.2,0,0,1,1.4,1.3ZM61.5,8.7h-3a2,2,0,0,0-2.2,2.1v5.4a2,2,0,0,0,2.2,2h3a2,2,0,0,0,2.2-2V10.8a2,2,0,0,0-2.2-2.1m-34.8.8h3.7v8.7h.9V9.5H35V8.7H26.7ZM14.4,18.2h6.4v-.8H15.3V13.8h4.8v-.7H15.3V9.5h5.5V8.7H14.4ZM6,12.4a1.2,1.2,0,0,1-1.4,1.3H.9V9.5H4.6A1.2,1.2,0,0,1,6,10.8ZM4.7,8.7H0v9.5H.9V14.5H4.7a2,2,0,0,0,2.2-2V10.8A2,2,0,0,0,4.7,8.7m118.6,6.1,2.2-5,2.1,5ZM126,8.7h-1l-4,9.5h1l1-2.6h4.9l1.1,2.6h1l-4-9.4ZM152.7,17l-3.5-8.2h-1l3.9,9.4h1l4-9.5h-.9Zm16.7-7.5V8.7H163v9.5h6.4v-.8h-5.5V13.8h4.8v-.7h-4.8V9.5Zm-31.7-.8h-.9v9.5h6.4v-.8h-5.5Zm-26,8.3-3.5-8.2h-1l4,9.4h.9l4-9.5h-.9Z" transform="translate(0 0)"/>
      </g>
    </g>
  </g>
</svg>
